<svg xmlns="http://www.w3.org/2000/svg" viewBox="0 0 128 144">
  <path d="M64 4 116 23v43c0 35-21 59-52 74C33 125 12 101 12 66V23Z" fill="#102d49" stroke="#c7a75e" stroke-width="6"/>
  <path d="M64 14 105 29v36c0 27-15 47-41 61-26-14-41-34-41-61V29Z" fill="#173b5e"/>
  <circle cx="64" cy="42" r="7" fill="#d8bd78"/>
  <path d="M64 49v43M42 94h44M37 56h54M64 51 42 56l-13 24M64 51l27 5 10 24" fill="none" stroke="#f6e5ad" stroke-width="5" stroke-linecap="round" stroke-linejoin="round"/>
  <path d="M20 80h27c-2 9-7 14-14 14S22 89 20 80Zm61 0h40c-3 9-10 14-20 14S84 89 81 80Z" fill="#d8bd78"/>
</svg>
